<mxfile host="app.diagrams.net" modified="2022-01-28T10:39:11.647Z" agent="5.0 (Windows NT 10.0; Win64; x64) AppleWebKit/537.36 (KHTML, like Gecko) Chrome/97.0.4692.99 Safari/537.36 Edg/97.0.1072.69" etag="d1GlTZZM9k3nmqm0rViY" version="16.4.8" type="github">
  <diagram id="GlNpoR65qKVSwg_ja5b7" name="Page-1">
    <mxGraphModel dx="1540" dy="1064" grid="1" gridSize="10" guides="1" tooltips="1" connect="1" arrows="1" fold="1" page="1" pageScale="1" pageWidth="827" pageHeight="1169" math="0" shadow="0">
      <root>
        <mxCell id="0" />
        <mxCell id="1" parent="0" />
        <mxCell id="l-w22jun4BVGwJeJByUf-1" value="" style="strokeWidth=1;shadow=0;dashed=0;align=center;html=1;shape=mxgraph.mockup.containers.browserWindow;rSize=0;strokeColor=#666666;strokeColor2=#008cff;strokeColor3=#c4c4c4;mainText=,;recursiveResize=0;" parent="1" vertex="1">
          <mxGeometry x="590" y="90" width="1570" height="1290" as="geometry" />
        </mxCell>
        <mxCell id="l-w22jun4BVGwJeJByUf-2" value="Page 1" style="strokeWidth=1;shadow=0;dashed=0;align=center;html=1;shape=mxgraph.mockup.containers.anchor;fontSize=17;fontColor=#666666;align=left;" parent="l-w22jun4BVGwJeJByUf-1" vertex="1">
          <mxGeometry x="60" y="12" width="110" height="26" as="geometry" />
        </mxCell>
        <mxCell id="l-w22jun4BVGwJeJByUf-3" value="https://www.draw.io" style="strokeWidth=1;shadow=0;dashed=0;align=center;html=1;shape=mxgraph.mockup.containers.anchor;rSize=0;fontSize=17;fontColor=#666666;align=left;" parent="l-w22jun4BVGwJeJByUf-1" vertex="1">
          <mxGeometry x="130" y="60" width="250" height="26" as="geometry" />
        </mxCell>
        <mxCell id="l-w22jun4BVGwJeJByUf-4" value="Ver/Editar detalles del paciente" style="text;strokeColor=none;fillColor=none;html=1;fontSize=24;fontStyle=1;verticalAlign=middle;align=center;" parent="l-w22jun4BVGwJeJByUf-1" vertex="1">
          <mxGeometry x="50" y="180" width="430" height="40" as="geometry" />
        </mxCell>
        <mxCell id="l-w22jun4BVGwJeJByUf-5" style="edgeStyle=orthogonalEdgeStyle;rounded=0;orthogonalLoop=1;jettySize=auto;html=1;exitX=1;exitY=0;exitDx=0;exitDy=0;entryX=1;entryY=0.25;entryDx=0;entryDy=0;" parent="l-w22jun4BVGwJeJByUf-1" source="l-w22jun4BVGwJeJByUf-4" target="l-w22jun4BVGwJeJByUf-4" edge="1">
          <mxGeometry relative="1" as="geometry" />
        </mxCell>
        <mxCell id="l-w22jun4BVGwJeJByUf-20" value="" style="shape=table;html=1;whiteSpace=wrap;startSize=0;container=1;collapsible=0;childLayout=tableLayout;fontSize=18;" parent="l-w22jun4BVGwJeJByUf-1" vertex="1">
          <mxGeometry x="90" y="330" width="630" height="180" as="geometry" />
        </mxCell>
        <mxCell id="l-w22jun4BVGwJeJByUf-21" value="" style="shape=tableRow;horizontal=0;startSize=0;swimlaneHead=0;swimlaneBody=0;top=0;left=0;bottom=0;right=0;collapsible=0;dropTarget=0;fillColor=none;points=[[0,0.5],[1,0.5]];portConstraint=eastwest;fontSize=18;" parent="l-w22jun4BVGwJeJByUf-20" vertex="1">
          <mxGeometry width="630" height="59" as="geometry" />
        </mxCell>
        <mxCell id="l-w22jun4BVGwJeJByUf-22" value="DNI" style="shape=partialRectangle;html=1;whiteSpace=wrap;connectable=0;fillColor=none;top=0;left=0;bottom=0;right=0;overflow=hidden;fontSize=18;" parent="l-w22jun4BVGwJeJByUf-21" vertex="1">
          <mxGeometry width="210" height="59" as="geometry">
            <mxRectangle width="210" height="59" as="alternateBounds" />
          </mxGeometry>
        </mxCell>
        <mxCell id="l-w22jun4BVGwJeJByUf-23" value="456786" style="shape=partialRectangle;html=1;whiteSpace=wrap;connectable=0;fillColor=none;top=0;left=0;bottom=0;right=0;overflow=hidden;fontSize=18;" parent="l-w22jun4BVGwJeJByUf-21" vertex="1">
          <mxGeometry x="210" width="320" height="59" as="geometry">
            <mxRectangle width="320" height="59" as="alternateBounds" />
          </mxGeometry>
        </mxCell>
        <mxCell id="l-w22jun4BVGwJeJByUf-24" value="" style="shape=partialRectangle;html=1;whiteSpace=wrap;connectable=0;fillColor=none;top=0;left=0;bottom=0;right=0;overflow=hidden;fontSize=18;" parent="l-w22jun4BVGwJeJByUf-21" vertex="1">
          <mxGeometry x="530" width="100" height="59" as="geometry">
            <mxRectangle width="100" height="59" as="alternateBounds" />
          </mxGeometry>
        </mxCell>
        <mxCell id="l-w22jun4BVGwJeJByUf-25" value="" style="shape=tableRow;horizontal=0;startSize=0;swimlaneHead=0;swimlaneBody=0;top=0;left=0;bottom=0;right=0;collapsible=0;dropTarget=0;fillColor=none;points=[[0,0.5],[1,0.5]];portConstraint=eastwest;fontSize=18;" parent="l-w22jun4BVGwJeJByUf-20" vertex="1">
          <mxGeometry y="59" width="630" height="62" as="geometry" />
        </mxCell>
        <mxCell id="l-w22jun4BVGwJeJByUf-26" value="Nombre" style="shape=partialRectangle;html=1;whiteSpace=wrap;connectable=0;fillColor=none;top=0;left=0;bottom=0;right=0;overflow=hidden;fontSize=18;" parent="l-w22jun4BVGwJeJByUf-25" vertex="1">
          <mxGeometry width="210" height="62" as="geometry">
            <mxRectangle width="210" height="62" as="alternateBounds" />
          </mxGeometry>
        </mxCell>
        <mxCell id="l-w22jun4BVGwJeJByUf-27" value="Juan" style="shape=partialRectangle;html=1;whiteSpace=wrap;connectable=0;fillColor=none;top=0;left=0;bottom=0;right=0;overflow=hidden;fontSize=18;" parent="l-w22jun4BVGwJeJByUf-25" vertex="1">
          <mxGeometry x="210" width="320" height="62" as="geometry">
            <mxRectangle width="320" height="62" as="alternateBounds" />
          </mxGeometry>
        </mxCell>
        <mxCell id="l-w22jun4BVGwJeJByUf-28" value="" style="shape=partialRectangle;html=1;whiteSpace=wrap;connectable=0;fillColor=none;top=0;left=0;bottom=0;right=0;overflow=hidden;fontSize=18;" parent="l-w22jun4BVGwJeJByUf-25" vertex="1">
          <mxGeometry x="530" width="100" height="62" as="geometry">
            <mxRectangle width="100" height="62" as="alternateBounds" />
          </mxGeometry>
        </mxCell>
        <mxCell id="l-w22jun4BVGwJeJByUf-29" value="" style="shape=tableRow;horizontal=0;startSize=0;swimlaneHead=0;swimlaneBody=0;top=0;left=0;bottom=0;right=0;collapsible=0;dropTarget=0;fillColor=none;points=[[0,0.5],[1,0.5]];portConstraint=eastwest;fontSize=18;" parent="l-w22jun4BVGwJeJByUf-20" vertex="1">
          <mxGeometry y="121" width="630" height="59" as="geometry" />
        </mxCell>
        <mxCell id="l-w22jun4BVGwJeJByUf-30" value="Apellidos" style="shape=partialRectangle;html=1;whiteSpace=wrap;connectable=0;fillColor=none;top=0;left=0;bottom=0;right=0;overflow=hidden;fontSize=18;" parent="l-w22jun4BVGwJeJByUf-29" vertex="1">
          <mxGeometry width="210" height="59" as="geometry">
            <mxRectangle width="210" height="59" as="alternateBounds" />
          </mxGeometry>
        </mxCell>
        <mxCell id="l-w22jun4BVGwJeJByUf-31" value="Gacia Perez" style="shape=partialRectangle;html=1;whiteSpace=wrap;connectable=0;fillColor=none;top=0;left=0;bottom=0;right=0;overflow=hidden;fontSize=18;" parent="l-w22jun4BVGwJeJByUf-29" vertex="1">
          <mxGeometry x="210" width="320" height="59" as="geometry">
            <mxRectangle width="320" height="59" as="alternateBounds" />
          </mxGeometry>
        </mxCell>
        <mxCell id="l-w22jun4BVGwJeJByUf-32" value="&lt;span style=&quot;color: rgba(0 , 0 , 0 , 0) ; font-family: monospace ; font-size: 0px&quot;&gt;%3CmxGraphModel%3E%3Croot%3E%3CmxCell%20id%3D%220%22%2F%3E%3CmxCell%20id%3D%221%22%20parent%3D%220%22%2F%3E%3CmxCell%20id%3D%222%22%20value%3D%22Editar%22%20style%3D%22labelPosition%3Dcenter%3BverticalLabelPosition%3Dmiddle%3Balign%3Dcenter%3Bhtml%3D1%3Bshape%3Dmxgraph.basic.button%3Bdx%3D10%3BfontSize%3D18%3B%22%20vertex%3D%221%22%20parent%3D%221%22%3E%3CmxGeometry%20x%3D%22420%22%20y%3D%22380%22%20width%3D%22100%22%20height%3D%2260%22%20as%3D%22geometry%22%2F%3E%3C%2FmxCell%3E%3C%2Froot%3E%3C%2FmxGraphModel%3E&lt;/span&gt;" style="shape=partialRectangle;html=1;whiteSpace=wrap;connectable=0;fillColor=none;top=0;left=0;bottom=0;right=0;overflow=hidden;pointerEvents=1;fontSize=18;" parent="l-w22jun4BVGwJeJByUf-29" vertex="1">
          <mxGeometry x="530" width="100" height="59" as="geometry">
            <mxRectangle width="100" height="59" as="alternateBounds" />
          </mxGeometry>
        </mxCell>
        <mxCell id="l-w22jun4BVGwJeJByUf-33" value="Datos personales" style="text;strokeColor=none;fillColor=none;html=1;fontSize=24;fontStyle=1;verticalAlign=middle;align=center;" parent="l-w22jun4BVGwJeJByUf-1" vertex="1">
          <mxGeometry x="70" y="250" width="240" height="40" as="geometry" />
        </mxCell>
        <mxCell id="l-w22jun4BVGwJeJByUf-34" value="Editar" style="labelPosition=center;verticalLabelPosition=middle;align=center;html=1;shape=mxgraph.basic.button;dx=10;fontSize=18;" parent="l-w22jun4BVGwJeJByUf-1" vertex="1">
          <mxGeometry x="620" y="330" width="100" height="60" as="geometry" />
        </mxCell>
        <mxCell id="l-w22jun4BVGwJeJByUf-55" value="Editar" style="labelPosition=center;verticalLabelPosition=middle;align=center;html=1;shape=mxgraph.basic.button;dx=10;fontSize=18;" parent="l-w22jun4BVGwJeJByUf-1" vertex="1">
          <mxGeometry x="620" y="390" width="100" height="60" as="geometry" />
        </mxCell>
        <mxCell id="l-w22jun4BVGwJeJByUf-56" value="Editar" style="labelPosition=center;verticalLabelPosition=middle;align=center;html=1;shape=mxgraph.basic.button;dx=10;fontSize=18;" parent="l-w22jun4BVGwJeJByUf-1" vertex="1">
          <mxGeometry x="620" y="450" width="100" height="60" as="geometry" />
        </mxCell>
        <mxCell id="l-w22jun4BVGwJeJByUf-57" value="" style="shape=table;html=1;whiteSpace=wrap;startSize=0;container=1;collapsible=0;childLayout=tableLayout;fontSize=18;" parent="l-w22jun4BVGwJeJByUf-1" vertex="1">
          <mxGeometry x="770" y="330" width="630" height="180" as="geometry" />
        </mxCell>
        <mxCell id="l-w22jun4BVGwJeJByUf-58" value="" style="shape=tableRow;horizontal=0;startSize=0;swimlaneHead=0;swimlaneBody=0;top=0;left=0;bottom=0;right=0;collapsible=0;dropTarget=0;fillColor=none;points=[[0,0.5],[1,0.5]];portConstraint=eastwest;fontSize=18;" parent="l-w22jun4BVGwJeJByUf-57" vertex="1">
          <mxGeometry width="630" height="59" as="geometry" />
        </mxCell>
        <mxCell id="l-w22jun4BVGwJeJByUf-59" value="Dato n4" style="shape=partialRectangle;html=1;whiteSpace=wrap;connectable=0;fillColor=none;top=0;left=0;bottom=0;right=0;overflow=hidden;fontSize=18;" parent="l-w22jun4BVGwJeJByUf-58" vertex="1">
          <mxGeometry width="210" height="59" as="geometry">
            <mxRectangle width="210" height="59" as="alternateBounds" />
          </mxGeometry>
        </mxCell>
        <mxCell id="l-w22jun4BVGwJeJByUf-60" value="Valor dato" style="shape=partialRectangle;html=1;whiteSpace=wrap;connectable=0;fillColor=none;top=0;left=0;bottom=0;right=0;overflow=hidden;fontSize=18;" parent="l-w22jun4BVGwJeJByUf-58" vertex="1">
          <mxGeometry x="210" width="320" height="59" as="geometry">
            <mxRectangle width="320" height="59" as="alternateBounds" />
          </mxGeometry>
        </mxCell>
        <mxCell id="l-w22jun4BVGwJeJByUf-61" value="" style="shape=partialRectangle;html=1;whiteSpace=wrap;connectable=0;fillColor=none;top=0;left=0;bottom=0;right=0;overflow=hidden;fontSize=18;" parent="l-w22jun4BVGwJeJByUf-58" vertex="1">
          <mxGeometry x="530" width="100" height="59" as="geometry">
            <mxRectangle width="100" height="59" as="alternateBounds" />
          </mxGeometry>
        </mxCell>
        <mxCell id="l-w22jun4BVGwJeJByUf-62" value="" style="shape=tableRow;horizontal=0;startSize=0;swimlaneHead=0;swimlaneBody=0;top=0;left=0;bottom=0;right=0;collapsible=0;dropTarget=0;fillColor=none;points=[[0,0.5],[1,0.5]];portConstraint=eastwest;fontSize=18;" parent="l-w22jun4BVGwJeJByUf-57" vertex="1">
          <mxGeometry y="59" width="630" height="62" as="geometry" />
        </mxCell>
        <mxCell id="l-w22jun4BVGwJeJByUf-63" value="Dato n 5" style="shape=partialRectangle;html=1;whiteSpace=wrap;connectable=0;fillColor=none;top=0;left=0;bottom=0;right=0;overflow=hidden;fontSize=18;" parent="l-w22jun4BVGwJeJByUf-62" vertex="1">
          <mxGeometry width="210" height="62" as="geometry">
            <mxRectangle width="210" height="62" as="alternateBounds" />
          </mxGeometry>
        </mxCell>
        <mxCell id="l-w22jun4BVGwJeJByUf-64" value="Valor dato" style="shape=partialRectangle;html=1;whiteSpace=wrap;connectable=0;fillColor=none;top=0;left=0;bottom=0;right=0;overflow=hidden;fontSize=18;" parent="l-w22jun4BVGwJeJByUf-62" vertex="1">
          <mxGeometry x="210" width="320" height="62" as="geometry">
            <mxRectangle width="320" height="62" as="alternateBounds" />
          </mxGeometry>
        </mxCell>
        <mxCell id="l-w22jun4BVGwJeJByUf-65" value="" style="shape=partialRectangle;html=1;whiteSpace=wrap;connectable=0;fillColor=none;top=0;left=0;bottom=0;right=0;overflow=hidden;fontSize=18;" parent="l-w22jun4BVGwJeJByUf-62" vertex="1">
          <mxGeometry x="530" width="100" height="62" as="geometry">
            <mxRectangle width="100" height="62" as="alternateBounds" />
          </mxGeometry>
        </mxCell>
        <mxCell id="l-w22jun4BVGwJeJByUf-66" value="" style="shape=tableRow;horizontal=0;startSize=0;swimlaneHead=0;swimlaneBody=0;top=0;left=0;bottom=0;right=0;collapsible=0;dropTarget=0;fillColor=none;points=[[0,0.5],[1,0.5]];portConstraint=eastwest;fontSize=18;" parent="l-w22jun4BVGwJeJByUf-57" vertex="1">
          <mxGeometry y="121" width="630" height="59" as="geometry" />
        </mxCell>
        <mxCell id="l-w22jun4BVGwJeJByUf-67" value="Dato n 6" style="shape=partialRectangle;html=1;whiteSpace=wrap;connectable=0;fillColor=none;top=0;left=0;bottom=0;right=0;overflow=hidden;fontSize=18;" parent="l-w22jun4BVGwJeJByUf-66" vertex="1">
          <mxGeometry width="210" height="59" as="geometry">
            <mxRectangle width="210" height="59" as="alternateBounds" />
          </mxGeometry>
        </mxCell>
        <mxCell id="l-w22jun4BVGwJeJByUf-68" value="Valor dato" style="shape=partialRectangle;html=1;whiteSpace=wrap;connectable=0;fillColor=none;top=0;left=0;bottom=0;right=0;overflow=hidden;fontSize=18;" parent="l-w22jun4BVGwJeJByUf-66" vertex="1">
          <mxGeometry x="210" width="320" height="59" as="geometry">
            <mxRectangle width="320" height="59" as="alternateBounds" />
          </mxGeometry>
        </mxCell>
        <mxCell id="l-w22jun4BVGwJeJByUf-69" value="&lt;span style=&quot;color: rgba(0 , 0 , 0 , 0) ; font-family: monospace ; font-size: 0px&quot;&gt;%3CmxGraphModel%3E%3Croot%3E%3CmxCell%20id%3D%220%22%2F%3E%3CmxCell%20id%3D%221%22%20parent%3D%220%22%2F%3E%3CmxCell%20id%3D%222%22%20value%3D%22Editar%22%20style%3D%22labelPosition%3Dcenter%3BverticalLabelPosition%3Dmiddle%3Balign%3Dcenter%3Bhtml%3D1%3Bshape%3Dmxgraph.basic.button%3Bdx%3D10%3BfontSize%3D18%3B%22%20vertex%3D%221%22%20parent%3D%221%22%3E%3CmxGeometry%20x%3D%22420%22%20y%3D%22380%22%20width%3D%22100%22%20height%3D%2260%22%20as%3D%22geometry%22%2F%3E%3C%2FmxCell%3E%3C%2Froot%3E%3C%2FmxGraphModel%3E&lt;/span&gt;" style="shape=partialRectangle;html=1;whiteSpace=wrap;connectable=0;fillColor=none;top=0;left=0;bottom=0;right=0;overflow=hidden;pointerEvents=1;fontSize=18;" parent="l-w22jun4BVGwJeJByUf-66" vertex="1">
          <mxGeometry x="530" width="100" height="59" as="geometry">
            <mxRectangle width="100" height="59" as="alternateBounds" />
          </mxGeometry>
        </mxCell>
        <mxCell id="l-w22jun4BVGwJeJByUf-70" value="Editar" style="labelPosition=center;verticalLabelPosition=middle;align=center;html=1;shape=mxgraph.basic.button;dx=10;fontSize=18;" parent="l-w22jun4BVGwJeJByUf-1" vertex="1">
          <mxGeometry x="1300" y="330" width="100" height="60" as="geometry" />
        </mxCell>
        <mxCell id="l-w22jun4BVGwJeJByUf-71" value="Editar" style="labelPosition=center;verticalLabelPosition=middle;align=center;html=1;shape=mxgraph.basic.button;dx=10;fontSize=18;" parent="l-w22jun4BVGwJeJByUf-1" vertex="1">
          <mxGeometry x="1300" y="390" width="100" height="60" as="geometry" />
        </mxCell>
        <mxCell id="l-w22jun4BVGwJeJByUf-72" value="Editar" style="labelPosition=center;verticalLabelPosition=middle;align=center;html=1;shape=mxgraph.basic.button;dx=10;fontSize=18;" parent="l-w22jun4BVGwJeJByUf-1" vertex="1">
          <mxGeometry x="1300" y="450" width="100" height="60" as="geometry" />
        </mxCell>
        <mxCell id="l-w22jun4BVGwJeJByUf-74" value="Datos clínicos" style="text;strokeColor=none;fillColor=none;html=1;fontSize=24;fontStyle=1;verticalAlign=middle;align=center;" parent="l-w22jun4BVGwJeJByUf-1" vertex="1">
          <mxGeometry x="90" y="560" width="190" height="40" as="geometry" />
        </mxCell>
        <mxCell id="l-w22jun4BVGwJeJByUf-75" value="" style="shape=table;html=1;whiteSpace=wrap;startSize=0;container=1;collapsible=0;childLayout=tableLayout;fontSize=18;" parent="l-w22jun4BVGwJeJByUf-1" vertex="1">
          <mxGeometry x="90" y="610" width="630" height="180" as="geometry" />
        </mxCell>
        <mxCell id="l-w22jun4BVGwJeJByUf-76" value="" style="shape=tableRow;horizontal=0;startSize=0;swimlaneHead=0;swimlaneBody=0;top=0;left=0;bottom=0;right=0;collapsible=0;dropTarget=0;fillColor=none;points=[[0,0.5],[1,0.5]];portConstraint=eastwest;fontSize=18;" parent="l-w22jun4BVGwJeJByUf-75" vertex="1">
          <mxGeometry width="630" height="59" as="geometry" />
        </mxCell>
        <mxCell id="l-w22jun4BVGwJeJByUf-77" value="Dato clinico 1" style="shape=partialRectangle;html=1;whiteSpace=wrap;connectable=0;fillColor=none;top=0;left=0;bottom=0;right=0;overflow=hidden;fontSize=18;" parent="l-w22jun4BVGwJeJByUf-76" vertex="1">
          <mxGeometry width="210" height="59" as="geometry">
            <mxRectangle width="210" height="59" as="alternateBounds" />
          </mxGeometry>
        </mxCell>
        <mxCell id="l-w22jun4BVGwJeJByUf-78" value="Valor" style="shape=partialRectangle;html=1;whiteSpace=wrap;connectable=0;fillColor=none;top=0;left=0;bottom=0;right=0;overflow=hidden;fontSize=18;" parent="l-w22jun4BVGwJeJByUf-76" vertex="1">
          <mxGeometry x="210" width="320" height="59" as="geometry">
            <mxRectangle width="320" height="59" as="alternateBounds" />
          </mxGeometry>
        </mxCell>
        <mxCell id="l-w22jun4BVGwJeJByUf-79" value="" style="shape=partialRectangle;html=1;whiteSpace=wrap;connectable=0;fillColor=none;top=0;left=0;bottom=0;right=0;overflow=hidden;fontSize=18;" parent="l-w22jun4BVGwJeJByUf-76" vertex="1">
          <mxGeometry x="530" width="100" height="59" as="geometry">
            <mxRectangle width="100" height="59" as="alternateBounds" />
          </mxGeometry>
        </mxCell>
        <mxCell id="l-w22jun4BVGwJeJByUf-80" value="" style="shape=tableRow;horizontal=0;startSize=0;swimlaneHead=0;swimlaneBody=0;top=0;left=0;bottom=0;right=0;collapsible=0;dropTarget=0;fillColor=none;points=[[0,0.5],[1,0.5]];portConstraint=eastwest;fontSize=18;" parent="l-w22jun4BVGwJeJByUf-75" vertex="1">
          <mxGeometry y="59" width="630" height="62" as="geometry" />
        </mxCell>
        <mxCell id="l-w22jun4BVGwJeJByUf-81" value="Dato clinico 2" style="shape=partialRectangle;html=1;whiteSpace=wrap;connectable=0;fillColor=none;top=0;left=0;bottom=0;right=0;overflow=hidden;fontSize=18;" parent="l-w22jun4BVGwJeJByUf-80" vertex="1">
          <mxGeometry width="210" height="62" as="geometry">
            <mxRectangle width="210" height="62" as="alternateBounds" />
          </mxGeometry>
        </mxCell>
        <mxCell id="l-w22jun4BVGwJeJByUf-82" value="Valor" style="shape=partialRectangle;html=1;whiteSpace=wrap;connectable=0;fillColor=none;top=0;left=0;bottom=0;right=0;overflow=hidden;fontSize=18;" parent="l-w22jun4BVGwJeJByUf-80" vertex="1">
          <mxGeometry x="210" width="320" height="62" as="geometry">
            <mxRectangle width="320" height="62" as="alternateBounds" />
          </mxGeometry>
        </mxCell>
        <mxCell id="l-w22jun4BVGwJeJByUf-83" value="" style="shape=partialRectangle;html=1;whiteSpace=wrap;connectable=0;fillColor=none;top=0;left=0;bottom=0;right=0;overflow=hidden;fontSize=18;" parent="l-w22jun4BVGwJeJByUf-80" vertex="1">
          <mxGeometry x="530" width="100" height="62" as="geometry">
            <mxRectangle width="100" height="62" as="alternateBounds" />
          </mxGeometry>
        </mxCell>
        <mxCell id="l-w22jun4BVGwJeJByUf-84" value="" style="shape=tableRow;horizontal=0;startSize=0;swimlaneHead=0;swimlaneBody=0;top=0;left=0;bottom=0;right=0;collapsible=0;dropTarget=0;fillColor=none;points=[[0,0.5],[1,0.5]];portConstraint=eastwest;fontSize=18;" parent="l-w22jun4BVGwJeJByUf-75" vertex="1">
          <mxGeometry y="121" width="630" height="59" as="geometry" />
        </mxCell>
        <mxCell id="l-w22jun4BVGwJeJByUf-85" value="Dato clinico 3" style="shape=partialRectangle;html=1;whiteSpace=wrap;connectable=0;fillColor=none;top=0;left=0;bottom=0;right=0;overflow=hidden;fontSize=18;" parent="l-w22jun4BVGwJeJByUf-84" vertex="1">
          <mxGeometry width="210" height="59" as="geometry">
            <mxRectangle width="210" height="59" as="alternateBounds" />
          </mxGeometry>
        </mxCell>
        <mxCell id="l-w22jun4BVGwJeJByUf-86" value="Valor" style="shape=partialRectangle;html=1;whiteSpace=wrap;connectable=0;fillColor=none;top=0;left=0;bottom=0;right=0;overflow=hidden;fontSize=18;" parent="l-w22jun4BVGwJeJByUf-84" vertex="1">
          <mxGeometry x="210" width="320" height="59" as="geometry">
            <mxRectangle width="320" height="59" as="alternateBounds" />
          </mxGeometry>
        </mxCell>
        <mxCell id="l-w22jun4BVGwJeJByUf-87" value="&lt;span style=&quot;color: rgba(0 , 0 , 0 , 0) ; font-family: monospace ; font-size: 0px&quot;&gt;%3CmxGraphModel%3E%3Croot%3E%3CmxCell%20id%3D%220%22%2F%3E%3CmxCell%20id%3D%221%22%20parent%3D%220%22%2F%3E%3CmxCell%20id%3D%222%22%20value%3D%22Editar%22%20style%3D%22labelPosition%3Dcenter%3BverticalLabelPosition%3Dmiddle%3Balign%3Dcenter%3Bhtml%3D1%3Bshape%3Dmxgraph.basic.button%3Bdx%3D10%3BfontSize%3D18%3B%22%20vertex%3D%221%22%20parent%3D%221%22%3E%3CmxGeometry%20x%3D%22420%22%20y%3D%22380%22%20width%3D%22100%22%20height%3D%2260%22%20as%3D%22geometry%22%2F%3E%3C%2FmxCell%3E%3C%2Froot%3E%3C%2FmxGraphModel%3E&lt;/span&gt;" style="shape=partialRectangle;html=1;whiteSpace=wrap;connectable=0;fillColor=none;top=0;left=0;bottom=0;right=0;overflow=hidden;pointerEvents=1;fontSize=18;" parent="l-w22jun4BVGwJeJByUf-84" vertex="1">
          <mxGeometry x="530" width="100" height="59" as="geometry">
            <mxRectangle width="100" height="59" as="alternateBounds" />
          </mxGeometry>
        </mxCell>
        <mxCell id="l-w22jun4BVGwJeJByUf-88" value="Editar" style="labelPosition=center;verticalLabelPosition=middle;align=center;html=1;shape=mxgraph.basic.button;dx=10;fontSize=18;" parent="l-w22jun4BVGwJeJByUf-1" vertex="1">
          <mxGeometry x="620" y="610" width="100" height="60" as="geometry" />
        </mxCell>
        <mxCell id="l-w22jun4BVGwJeJByUf-89" value="Editar" style="labelPosition=center;verticalLabelPosition=middle;align=center;html=1;shape=mxgraph.basic.button;dx=10;fontSize=18;" parent="l-w22jun4BVGwJeJByUf-1" vertex="1">
          <mxGeometry x="620" y="670" width="100" height="60" as="geometry" />
        </mxCell>
        <mxCell id="l-w22jun4BVGwJeJByUf-90" value="Editar" style="labelPosition=center;verticalLabelPosition=middle;align=center;html=1;shape=mxgraph.basic.button;dx=10;fontSize=18;" parent="l-w22jun4BVGwJeJByUf-1" vertex="1">
          <mxGeometry x="620" y="730" width="100" height="60" as="geometry" />
        </mxCell>
        <mxCell id="l-w22jun4BVGwJeJByUf-91" value="" style="shape=table;html=1;whiteSpace=wrap;startSize=0;container=1;collapsible=0;childLayout=tableLayout;fontSize=18;" parent="l-w22jun4BVGwJeJByUf-1" vertex="1">
          <mxGeometry x="770" y="610" width="630" height="180" as="geometry" />
        </mxCell>
        <mxCell id="l-w22jun4BVGwJeJByUf-92" value="" style="shape=tableRow;horizontal=0;startSize=0;swimlaneHead=0;swimlaneBody=0;top=0;left=0;bottom=0;right=0;collapsible=0;dropTarget=0;fillColor=none;points=[[0,0.5],[1,0.5]];portConstraint=eastwest;fontSize=18;" parent="l-w22jun4BVGwJeJByUf-91" vertex="1">
          <mxGeometry width="630" height="59" as="geometry" />
        </mxCell>
        <mxCell id="l-w22jun4BVGwJeJByUf-93" value="Dato clinico 4" style="shape=partialRectangle;html=1;whiteSpace=wrap;connectable=0;fillColor=none;top=0;left=0;bottom=0;right=0;overflow=hidden;fontSize=18;" parent="l-w22jun4BVGwJeJByUf-92" vertex="1">
          <mxGeometry width="210" height="59" as="geometry">
            <mxRectangle width="210" height="59" as="alternateBounds" />
          </mxGeometry>
        </mxCell>
        <mxCell id="l-w22jun4BVGwJeJByUf-94" value="Valor" style="shape=partialRectangle;html=1;whiteSpace=wrap;connectable=0;fillColor=none;top=0;left=0;bottom=0;right=0;overflow=hidden;fontSize=18;" parent="l-w22jun4BVGwJeJByUf-92" vertex="1">
          <mxGeometry x="210" width="320" height="59" as="geometry">
            <mxRectangle width="320" height="59" as="alternateBounds" />
          </mxGeometry>
        </mxCell>
        <mxCell id="l-w22jun4BVGwJeJByUf-95" value="" style="shape=partialRectangle;html=1;whiteSpace=wrap;connectable=0;fillColor=none;top=0;left=0;bottom=0;right=0;overflow=hidden;fontSize=18;" parent="l-w22jun4BVGwJeJByUf-92" vertex="1">
          <mxGeometry x="530" width="100" height="59" as="geometry">
            <mxRectangle width="100" height="59" as="alternateBounds" />
          </mxGeometry>
        </mxCell>
        <mxCell id="l-w22jun4BVGwJeJByUf-96" value="" style="shape=tableRow;horizontal=0;startSize=0;swimlaneHead=0;swimlaneBody=0;top=0;left=0;bottom=0;right=0;collapsible=0;dropTarget=0;fillColor=none;points=[[0,0.5],[1,0.5]];portConstraint=eastwest;fontSize=18;" parent="l-w22jun4BVGwJeJByUf-91" vertex="1">
          <mxGeometry y="59" width="630" height="62" as="geometry" />
        </mxCell>
        <mxCell id="l-w22jun4BVGwJeJByUf-97" value="Dato clinico 5" style="shape=partialRectangle;html=1;whiteSpace=wrap;connectable=0;fillColor=none;top=0;left=0;bottom=0;right=0;overflow=hidden;fontSize=18;" parent="l-w22jun4BVGwJeJByUf-96" vertex="1">
          <mxGeometry width="210" height="62" as="geometry">
            <mxRectangle width="210" height="62" as="alternateBounds" />
          </mxGeometry>
        </mxCell>
        <mxCell id="l-w22jun4BVGwJeJByUf-98" value="Valor" style="shape=partialRectangle;html=1;whiteSpace=wrap;connectable=0;fillColor=none;top=0;left=0;bottom=0;right=0;overflow=hidden;fontSize=18;" parent="l-w22jun4BVGwJeJByUf-96" vertex="1">
          <mxGeometry x="210" width="320" height="62" as="geometry">
            <mxRectangle width="320" height="62" as="alternateBounds" />
          </mxGeometry>
        </mxCell>
        <mxCell id="l-w22jun4BVGwJeJByUf-99" value="" style="shape=partialRectangle;html=1;whiteSpace=wrap;connectable=0;fillColor=none;top=0;left=0;bottom=0;right=0;overflow=hidden;fontSize=18;" parent="l-w22jun4BVGwJeJByUf-96" vertex="1">
          <mxGeometry x="530" width="100" height="62" as="geometry">
            <mxRectangle width="100" height="62" as="alternateBounds" />
          </mxGeometry>
        </mxCell>
        <mxCell id="l-w22jun4BVGwJeJByUf-100" value="" style="shape=tableRow;horizontal=0;startSize=0;swimlaneHead=0;swimlaneBody=0;top=0;left=0;bottom=0;right=0;collapsible=0;dropTarget=0;fillColor=none;points=[[0,0.5],[1,0.5]];portConstraint=eastwest;fontSize=18;" parent="l-w22jun4BVGwJeJByUf-91" vertex="1">
          <mxGeometry y="121" width="630" height="59" as="geometry" />
        </mxCell>
        <mxCell id="l-w22jun4BVGwJeJByUf-101" value="Dato clinico 6" style="shape=partialRectangle;html=1;whiteSpace=wrap;connectable=0;fillColor=none;top=0;left=0;bottom=0;right=0;overflow=hidden;fontSize=18;" parent="l-w22jun4BVGwJeJByUf-100" vertex="1">
          <mxGeometry width="210" height="59" as="geometry">
            <mxRectangle width="210" height="59" as="alternateBounds" />
          </mxGeometry>
        </mxCell>
        <mxCell id="l-w22jun4BVGwJeJByUf-102" value="Valor" style="shape=partialRectangle;html=1;whiteSpace=wrap;connectable=0;fillColor=none;top=0;left=0;bottom=0;right=0;overflow=hidden;fontSize=18;" parent="l-w22jun4BVGwJeJByUf-100" vertex="1">
          <mxGeometry x="210" width="320" height="59" as="geometry">
            <mxRectangle width="320" height="59" as="alternateBounds" />
          </mxGeometry>
        </mxCell>
        <mxCell id="l-w22jun4BVGwJeJByUf-103" value="&lt;span style=&quot;color: rgba(0 , 0 , 0 , 0) ; font-family: monospace ; font-size: 0px&quot;&gt;%3CmxGraphModel%3E%3Croot%3E%3CmxCell%20id%3D%220%22%2F%3E%3CmxCell%20id%3D%221%22%20parent%3D%220%22%2F%3E%3CmxCell%20id%3D%222%22%20value%3D%22Editar%22%20style%3D%22labelPosition%3Dcenter%3BverticalLabelPosition%3Dmiddle%3Balign%3Dcenter%3Bhtml%3D1%3Bshape%3Dmxgraph.basic.button%3Bdx%3D10%3BfontSize%3D18%3B%22%20vertex%3D%221%22%20parent%3D%221%22%3E%3CmxGeometry%20x%3D%22420%22%20y%3D%22380%22%20width%3D%22100%22%20height%3D%2260%22%20as%3D%22geometry%22%2F%3E%3C%2FmxCell%3E%3C%2Froot%3E%3C%2FmxGraphModel%3E&lt;/span&gt;" style="shape=partialRectangle;html=1;whiteSpace=wrap;connectable=0;fillColor=none;top=0;left=0;bottom=0;right=0;overflow=hidden;pointerEvents=1;fontSize=18;" parent="l-w22jun4BVGwJeJByUf-100" vertex="1">
          <mxGeometry x="530" width="100" height="59" as="geometry">
            <mxRectangle width="100" height="59" as="alternateBounds" />
          </mxGeometry>
        </mxCell>
        <mxCell id="l-w22jun4BVGwJeJByUf-104" value="Editar" style="labelPosition=center;verticalLabelPosition=middle;align=center;html=1;shape=mxgraph.basic.button;dx=10;fontSize=18;" parent="l-w22jun4BVGwJeJByUf-1" vertex="1">
          <mxGeometry x="1300" y="610" width="100" height="60" as="geometry" />
        </mxCell>
        <mxCell id="l-w22jun4BVGwJeJByUf-105" value="Editar" style="labelPosition=center;verticalLabelPosition=middle;align=center;html=1;shape=mxgraph.basic.button;dx=10;fontSize=18;" parent="l-w22jun4BVGwJeJByUf-1" vertex="1">
          <mxGeometry x="1300" y="670" width="100" height="60" as="geometry" />
        </mxCell>
        <mxCell id="l-w22jun4BVGwJeJByUf-106" value="Editar" style="labelPosition=center;verticalLabelPosition=middle;align=center;html=1;shape=mxgraph.basic.button;dx=10;fontSize=18;" parent="l-w22jun4BVGwJeJByUf-1" vertex="1">
          <mxGeometry x="1300" y="730" width="100" height="60" as="geometry" />
        </mxCell>
        <mxCell id="oyDt2zAMzGwHhHECyMGo-1" value="Tests de la marcha" style="text;strokeColor=none;fillColor=none;html=1;fontSize=24;fontStyle=1;verticalAlign=middle;align=center;" parent="l-w22jun4BVGwJeJByUf-1" vertex="1">
          <mxGeometry x="90" y="830" width="220" height="40" as="geometry" />
        </mxCell>
        <mxCell id="oyDt2zAMzGwHhHECyMGo-2" value="" style="shape=table;html=1;whiteSpace=wrap;startSize=0;container=1;collapsible=0;childLayout=tableLayout;" parent="l-w22jun4BVGwJeJByUf-1" vertex="1">
          <mxGeometry x="90" y="890" width="1310" height="160" as="geometry" />
        </mxCell>
        <mxCell id="oyDt2zAMzGwHhHECyMGo-3" value="" style="shape=tableRow;horizontal=0;startSize=0;swimlaneHead=0;swimlaneBody=0;top=0;left=0;bottom=0;right=0;collapsible=0;dropTarget=0;fillColor=none;points=[[0,0.5],[1,0.5]];portConstraint=eastwest;" parent="oyDt2zAMzGwHhHECyMGo-2" vertex="1">
          <mxGeometry width="1310" height="53" as="geometry" />
        </mxCell>
        <mxCell id="oyDt2zAMzGwHhHECyMGo-4" value="&lt;font style=&quot;font-size: 16px&quot;&gt;Id test 1&lt;/font&gt;" style="shape=partialRectangle;html=1;whiteSpace=wrap;connectable=0;fillColor=none;top=0;left=0;bottom=0;right=0;overflow=hidden;" parent="oyDt2zAMzGwHhHECyMGo-3" vertex="1">
          <mxGeometry width="230" height="53" as="geometry">
            <mxRectangle width="230" height="53" as="alternateBounds" />
          </mxGeometry>
        </mxCell>
        <mxCell id="oyDt2zAMzGwHhHECyMGo-6" value="&lt;font style=&quot;font-size: 16px&quot;&gt;Es nuevo?&lt;/font&gt;" style="shape=partialRectangle;html=1;whiteSpace=wrap;connectable=0;fillColor=none;top=0;left=0;bottom=0;right=0;overflow=hidden;" parent="oyDt2zAMzGwHhHECyMGo-3" vertex="1">
          <mxGeometry x="230" width="270" height="53" as="geometry">
            <mxRectangle width="270" height="53" as="alternateBounds" />
          </mxGeometry>
        </mxCell>
        <mxCell id="w3fxoEsj4uzUZ0huqSAY-7" value="&lt;font style=&quot;font-size: 16px&quot;&gt;Diagnosticado?&lt;/font&gt;" style="shape=partialRectangle;html=1;whiteSpace=wrap;connectable=0;fillColor=none;top=0;left=0;bottom=0;right=0;overflow=hidden;" vertex="1" parent="oyDt2zAMzGwHhHECyMGo-3">
          <mxGeometry x="500" width="370" height="53" as="geometry">
            <mxRectangle width="370" height="53" as="alternateBounds" />
          </mxGeometry>
        </mxCell>
        <mxCell id="w3fxoEsj4uzUZ0huqSAY-10" value="&lt;font style=&quot;font-size: 16px&quot;&gt;Fecha&lt;/font&gt;" style="shape=partialRectangle;html=1;whiteSpace=wrap;connectable=0;fillColor=none;top=0;left=0;bottom=0;right=0;overflow=hidden;" vertex="1" parent="oyDt2zAMzGwHhHECyMGo-3">
          <mxGeometry x="870" width="340" height="53" as="geometry">
            <mxRectangle width="340" height="53" as="alternateBounds" />
          </mxGeometry>
        </mxCell>
        <mxCell id="w3fxoEsj4uzUZ0huqSAY-13" style="shape=partialRectangle;html=1;whiteSpace=wrap;connectable=0;fillColor=none;top=0;left=0;bottom=0;right=0;overflow=hidden;" vertex="1" parent="oyDt2zAMzGwHhHECyMGo-3">
          <mxGeometry x="1210" width="100" height="53" as="geometry">
            <mxRectangle width="100" height="53" as="alternateBounds" />
          </mxGeometry>
        </mxCell>
        <mxCell id="oyDt2zAMzGwHhHECyMGo-7" value="" style="shape=tableRow;horizontal=0;startSize=0;swimlaneHead=0;swimlaneBody=0;top=0;left=0;bottom=0;right=0;collapsible=0;dropTarget=0;fillColor=none;points=[[0,0.5],[1,0.5]];portConstraint=eastwest;" parent="oyDt2zAMzGwHhHECyMGo-2" vertex="1">
          <mxGeometry y="53" width="1310" height="54" as="geometry" />
        </mxCell>
        <mxCell id="oyDt2zAMzGwHhHECyMGo-8" value="&lt;font style=&quot;font-size: 16px&quot;&gt;Id Test 2&lt;/font&gt;" style="shape=partialRectangle;html=1;whiteSpace=wrap;connectable=0;fillColor=none;top=0;left=0;bottom=0;right=0;overflow=hidden;" parent="oyDt2zAMzGwHhHECyMGo-7" vertex="1">
          <mxGeometry width="230" height="54" as="geometry">
            <mxRectangle width="230" height="54" as="alternateBounds" />
          </mxGeometry>
        </mxCell>
        <mxCell id="oyDt2zAMzGwHhHECyMGo-10" value="&lt;font style=&quot;font-size: 16px&quot;&gt;Es nuevo?&lt;/font&gt;" style="shape=partialRectangle;html=1;whiteSpace=wrap;connectable=0;fillColor=none;top=0;left=0;bottom=0;right=0;overflow=hidden;" parent="oyDt2zAMzGwHhHECyMGo-7" vertex="1">
          <mxGeometry x="230" width="270" height="54" as="geometry">
            <mxRectangle width="270" height="54" as="alternateBounds" />
          </mxGeometry>
        </mxCell>
        <mxCell id="w3fxoEsj4uzUZ0huqSAY-8" value="&lt;font style=&quot;font-size: 16px&quot;&gt;Diagnosticado?&lt;/font&gt;" style="shape=partialRectangle;html=1;whiteSpace=wrap;connectable=0;fillColor=none;top=0;left=0;bottom=0;right=0;overflow=hidden;" vertex="1" parent="oyDt2zAMzGwHhHECyMGo-7">
          <mxGeometry x="500" width="370" height="54" as="geometry">
            <mxRectangle width="370" height="54" as="alternateBounds" />
          </mxGeometry>
        </mxCell>
        <mxCell id="w3fxoEsj4uzUZ0huqSAY-11" value="&lt;font style=&quot;font-size: 16px&quot;&gt;Fecha&lt;/font&gt;" style="shape=partialRectangle;html=1;whiteSpace=wrap;connectable=0;fillColor=none;top=0;left=0;bottom=0;right=0;overflow=hidden;" vertex="1" parent="oyDt2zAMzGwHhHECyMGo-7">
          <mxGeometry x="870" width="340" height="54" as="geometry">
            <mxRectangle width="340" height="54" as="alternateBounds" />
          </mxGeometry>
        </mxCell>
        <mxCell id="w3fxoEsj4uzUZ0huqSAY-14" style="shape=partialRectangle;html=1;whiteSpace=wrap;connectable=0;fillColor=none;top=0;left=0;bottom=0;right=0;overflow=hidden;" vertex="1" parent="oyDt2zAMzGwHhHECyMGo-7">
          <mxGeometry x="1210" width="100" height="54" as="geometry">
            <mxRectangle width="100" height="54" as="alternateBounds" />
          </mxGeometry>
        </mxCell>
        <mxCell id="oyDt2zAMzGwHhHECyMGo-11" value="" style="shape=tableRow;horizontal=0;startSize=0;swimlaneHead=0;swimlaneBody=0;top=0;left=0;bottom=0;right=0;collapsible=0;dropTarget=0;fillColor=none;points=[[0,0.5],[1,0.5]];portConstraint=eastwest;" parent="oyDt2zAMzGwHhHECyMGo-2" vertex="1">
          <mxGeometry y="107" width="1310" height="53" as="geometry" />
        </mxCell>
        <mxCell id="oyDt2zAMzGwHhHECyMGo-12" value="&lt;font style=&quot;font-size: 16px&quot;&gt;Id Test 3&lt;/font&gt;" style="shape=partialRectangle;html=1;whiteSpace=wrap;connectable=0;fillColor=none;top=0;left=0;bottom=0;right=0;overflow=hidden;" parent="oyDt2zAMzGwHhHECyMGo-11" vertex="1">
          <mxGeometry width="230" height="53" as="geometry">
            <mxRectangle width="230" height="53" as="alternateBounds" />
          </mxGeometry>
        </mxCell>
        <mxCell id="oyDt2zAMzGwHhHECyMGo-14" value="&lt;font style=&quot;font-size: 16px&quot;&gt;Es nuevo?&lt;/font&gt;" style="shape=partialRectangle;html=1;whiteSpace=wrap;connectable=0;fillColor=none;top=0;left=0;bottom=0;right=0;overflow=hidden;pointerEvents=1;" parent="oyDt2zAMzGwHhHECyMGo-11" vertex="1">
          <mxGeometry x="230" width="270" height="53" as="geometry">
            <mxRectangle width="270" height="53" as="alternateBounds" />
          </mxGeometry>
        </mxCell>
        <mxCell id="w3fxoEsj4uzUZ0huqSAY-9" value="&lt;font style=&quot;font-size: 16px&quot;&gt;Diagnosticado?&lt;/font&gt;" style="shape=partialRectangle;html=1;whiteSpace=wrap;connectable=0;fillColor=none;top=0;left=0;bottom=0;right=0;overflow=hidden;pointerEvents=1;" vertex="1" parent="oyDt2zAMzGwHhHECyMGo-11">
          <mxGeometry x="500" width="370" height="53" as="geometry">
            <mxRectangle width="370" height="53" as="alternateBounds" />
          </mxGeometry>
        </mxCell>
        <mxCell id="w3fxoEsj4uzUZ0huqSAY-12" value="&lt;font style=&quot;font-size: 16px&quot;&gt;Fecha&lt;/font&gt;" style="shape=partialRectangle;html=1;whiteSpace=wrap;connectable=0;fillColor=none;top=0;left=0;bottom=0;right=0;overflow=hidden;pointerEvents=1;" vertex="1" parent="oyDt2zAMzGwHhHECyMGo-11">
          <mxGeometry x="870" width="340" height="53" as="geometry">
            <mxRectangle width="340" height="53" as="alternateBounds" />
          </mxGeometry>
        </mxCell>
        <mxCell id="w3fxoEsj4uzUZ0huqSAY-15" style="shape=partialRectangle;html=1;whiteSpace=wrap;connectable=0;fillColor=none;top=0;left=0;bottom=0;right=0;overflow=hidden;pointerEvents=1;" vertex="1" parent="oyDt2zAMzGwHhHECyMGo-11">
          <mxGeometry x="1210" width="100" height="53" as="geometry">
            <mxRectangle width="100" height="53" as="alternateBounds" />
          </mxGeometry>
        </mxCell>
        <mxCell id="oyDt2zAMzGwHhHECyMGo-16" value="&lt;font style=&quot;font-size: 16px&quot;&gt;Detalles&lt;/font&gt;" style="labelPosition=center;verticalLabelPosition=middle;align=center;html=1;shape=mxgraph.basic.button;dx=10;fontSize=16;" parent="l-w22jun4BVGwJeJByUf-1" vertex="1">
          <mxGeometry x="1300" y="895" width="100" height="50" as="geometry" />
        </mxCell>
        <mxCell id="oyDt2zAMzGwHhHECyMGo-18" value="&lt;font style=&quot;font-size: 16px&quot;&gt;Detalles&lt;/font&gt;" style="labelPosition=center;verticalLabelPosition=middle;align=center;html=1;shape=mxgraph.basic.button;dx=10;fontSize=16;" parent="l-w22jun4BVGwJeJByUf-1" vertex="1">
          <mxGeometry x="1300" y="995" width="100" height="50" as="geometry" />
        </mxCell>
        <mxCell id="oyDt2zAMzGwHhHECyMGo-17" value="&lt;font style=&quot;font-size: 16px&quot;&gt;Detalles&lt;/font&gt;" style="labelPosition=center;verticalLabelPosition=middle;align=center;html=1;shape=mxgraph.basic.button;dx=10;fontSize=16;" parent="l-w22jun4BVGwJeJByUf-1" vertex="1">
          <mxGeometry x="1300" y="945" width="100" height="50" as="geometry" />
        </mxCell>
      </root>
    </mxGraphModel>
  </diagram>
</mxfile>
